<svg xmlns="http://www.w3.org/2000/svg" xmlns:xlink="http://www.w3.org/1999/xlink" width="184" height="180" xmlns:v="https://vecta.io/nano"><g fill-rule="evenodd"><path d="M99.036 150a8.95 8.95 0 0 1 6.427 2.698c1.671 1.698 2.571 3.924 2.536 6.266 0 4.979-4.016 9.036-8.963 9.036-4.98 0-9.036-4.057-9.036-9.038 0-4.941 4.056-8.962 9.036-8.962zm0 1.358a7.7 7.7 0 0 0-7.68 7.68 7.69 7.69 0 0 0 7.68 7.673c2.069 0 4.004-.807 5.446-2.277a7.46 7.46 0 0 0 2.158-5.396c0-4.236-3.411-7.68-7.604-7.68zm.872 5.923v5.966h-1.583v-5.966h1.583zm-.792-2.7c.476 0 .863.392.861.869s-.385.867-.861.867a.87.87 0 0 1-.875-.867c0-.473.39-.869.875-.869z" fill="#c5ccd8" fill-rule="nonzero"/><path d="M173.5 56c2.094 0 4.114.62 5.845 1.792h0l.004.002.666-.966c.165-.248.391-.231.48.08h0l.772 2.794c.039.144.018.289-.06.408a.49.49 0 0 1-.368.207h0l-2.866.26c-.138.015-.255-.023-.304-.093-.064-.108-.002-.239.06-.331h0l.665-.967-.009-.007c-1.444-.971-3.133-1.484-4.879-1.484-1.804 0-3.536.541-5.014 1.566h0l-.028.02c-.852.597-1.58 1.33-2.17 2.177-1.356 1.933-1.881 4.29-1.479 6.638a8.84 8.84 0 0 0 3.607 5.748 9.71 9.71 0 0 0 .84.529h0l.031.018.477.238a8.55 8.55 0 0 0 2.167.695c.219.041.411.164.538.348a.83.83 0 0 1 .137.633.83.83 0 0 1-.819.695c-.05 0-.101-.004-.152-.013a10.32 10.32 0 0 1-4.189-1.767c-.476-.337-.934-.724-1.357-1.146-1.549-1.545-2.564-3.513-2.937-5.691l-.075-.502h0l-.008.002-.026-.293-.038-.553c-.096-2.147.451-4.241 1.586-6.066h0l.106-.134.052-.114.071-.107h0l.154-.224.089-.116h0l.03-.04c1.449-1.95 3.446-3.299 5.772-3.899h0l.034-.009.798-.172c.593-.103 1.196-.156 1.797-.156zm2.329 19.178c.386 0 .72.264.812.639a.84.84 0 0 1-.097.644.83.83 0 0 1-.518.379l-.622.139c-.052.008-.106.014-.158.014a.8.8 0 0 1-.479-.156.81.81 0 0 1-.34-.537c-.085-.455.216-.897.672-.983l.522-.114a.89.89 0 0 1 .208-.025zm2.539-1.189c.359-.244.905-.145 1.164.238a.85.85 0 0 1-.236 1.17l-.544.338a.83.83 0 0 1-.422.113.82.82 0 0 1-.483-.154.83.83 0 0 1-.244-.267c-.234-.401-.095-.923.307-1.153l.458-.285zm2.181-2.07a.86.86 0 0 1 1.178-.169.82.82 0 0 1 .326.556c.035.218-.021.442-.16.627l-.401.506c-.158.185-.39.294-.636.294a.82.82 0 0 1-.491-.158l-.06-.045c-.167-.146-.275-.359-.285-.576-.025-.217.046-.437.196-.611h0l.036-.045.297-.379zm2.172-3.285c.09 0 .174.016.254.043.434.135.68.607.547 1.055l-.207.608c-.127.328-.443.547-.787.547h0a.83.83 0 0 1-.303-.057c-.063-.024-.119-.059-.178-.096a.84.84 0 0 1-.305-.994l.171-.512a.84.84 0 0 1 .808-.594zm-9.741-8.927a.68.68 0 0 1 .679.682h0v6.029l5.491 2.856a.72.72 0 0 1 .336.402c.056.177.038.36-.048.52a.69.69 0 0 1-.612.365c-.106 0-.21-.025-.302-.074h0l-6.22-3.242v-6.856a.68.68 0 0 1 .676-.682zm10.167 5.648c.457 0 .826.357.847.811l.002.645a.85.85 0 0 1-.694.817h0v.014l-.287.02-.004-.035a.86.86 0 0 1-.341-.146c-.224-.16-.357-.421-.355-.706l-.002-.541c-.01-.225.071-.44.224-.604a.88.88 0 0 1 .61-.275zm-.68-3.234c.344 0 .651.208.779.529l.222.603c.144.447-.097.927-.535 1.074-.082.028-.168.041-.261.041-.171 0-.339-.053-.488-.153a.82.82 0 0 1-.312-.429l-.186-.505c-.084-.212-.08-.44.012-.646a.82.82 0 0 1 .457-.453.8.8 0 0 1 .312-.061zm1.316-41.924a.78.78 0 0 0-1.03.001l-5.254 5.098-5.25-5.097c-.272-.266-.76-.267-1.04.005a.69.69 0 0 0-.209.492c0 .177.075.351.215.494l5.762 5.589c.134.14.324.221.523.221a.74.74 0 0 0 .512-.206l5.769-5.598c.141-.134.219-.312.219-.5s-.077-.366-.217-.499" fill="#2d3d49"/><path d="M20.963 163.334a7.57 7.57 0 0 1-7.572-7.567c0-4.185 3.39-7.564 7.572-7.564s7.572 3.385 7.572 7.564c-.097 4.18-3.488 7.567-7.572 7.567m13.451 3.189l-5.185-5.186s-.104 0-.104-.103c.996-1.592 1.598-3.385 1.598-5.378A9.89 9.89 0 0 0 20.859 146c-5.478 0-9.859 4.382-9.859 9.856 0 5.378 4.385 9.855 9.859 9.855 1.993 0 3.891-.601 5.385-1.595 0 0 0 .103.1.103l5.183 5.181c.803.8 2.098.8 2.79 0 .894-.885.894-2.082.097-2.877" fill="#fff"/><path d="M65.963 163.334a7.57 7.57 0 0 1-7.572-7.567c0-4.185 3.39-7.564 7.572-7.564s7.572 3.385 7.572 7.564c-.097 4.18-3.488 7.567-7.572 7.567m13.451 3.189l-5.187-5.186s-.104 0-.104-.103c.996-1.592 1.596-3.385 1.596-5.378 0-5.377-4.385-9.856-9.86-9.856S56 150.382 56 155.856c0 5.378 4.383 9.855 9.859 9.855 1.993 0 3.889-.601 5.385-1.595 0 0 0 .103.098.103l5.187 5.181c.801.8 2.096.8 2.789 0 .893-.885.893-2.082.096-2.877" fill="#2d3d49"/><g fill-rule="nonzero"><use xlink:href="#B" fill="#fff"/><use xlink:href="#B" x="-30" fill="#2d3d49"/><use xlink:href="#C" fill="#fff"/><use xlink:href="#C" x="-30" fill="#2d3d49"/><path d="M103.297 135.001c.188 0 .369.072.499.2.271.276.271.721 0 .988h0l-5.761 5.813 5.754 5.805a.71.71 0 0 1 .194.385h0l.008.111c0 .188-.072.359-.211.503a.73.73 0 0 1-.492.194c-.19 0-.372-.073-.495-.202h0l-5.8-5.849-5.797 5.85c-.097.102-.233.169-.382.192h0l-.113.009c-.191 0-.373-.073-.499-.2a.71.71 0 0 1 .001-.994h0l5.758-5.807-5.759-5.812a.68.68 0 0 1-.196-.381h0l-.009-.112c0-.19.075-.368.204-.494s.305-.2.496-.2a.7.7 0 0 1 .496.198h0l5.804 5.854 5.803-5.852a.69.69 0 0 1 .382-.19h0z" fill="#fff"/><path d="M118.297 135.001c.188 0 .369.072.499.2.271.276.271.721 0 .988h0l-5.76 5.813 5.753 5.805a.71.71 0 0 1 .194.385h0l.008.111a.71.71 0 0 1-.211.503.73.73 0 0 1-.492.194c-.19 0-.372-.073-.495-.202h0l-5.799-5.848-5.797 5.849c-.097.102-.233.169-.382.192h0l-.113.009c-.191 0-.373-.073-.499-.2a.71.71 0 0 1 .001-.994h0l5.759-5.807-5.76-5.812a.68.68 0 0 1-.196-.381h0l-.009-.112a.69.69 0 0 1 .204-.494c.129-.126.305-.2.496-.2a.7.7 0 0 1 .496.198h0l5.804 5.853 5.803-5.851a.69.69 0 0 1 .382-.19h0zm1.248 15.075l.134.061 3.933 2.553c.282.183.455.461.455.772 0 .286-.147.543-.369.688l-.086.049-3.936 2.557c-.153.095-.341.157-.475.157a.92.92 0 0 1-.366-.072l-.07-.038c-.26-.124-.452-.384-.492-.678l-.007-.112v-1.653h-.009c-3.955.121-7.19 3.171-7.44 6.964l-.012.238-.004.235c0 4.081 3.473 7.438 7.699 7.438 4.272 0 7.7-3.334 7.7-7.438 0-.516.438-.9.934-.9.487 0 .866.381.867.9 0 5.081-4.263 9.203-9.501 9.203-5.223 0-9.499-4.129-9.499-9.203 0-4.926 3.982-8.95 8.962-9.222l.303-.012.001-1.687c0-.232.109-.451.282-.623l.092-.081.101-.072.033-.017a.98.98 0 0 1 .771-.005zm.52 2.448v1.848l1.429-.914-1.429-.933zM180.148 101v1.925H184V122h-21v-19.075h2.701v1.741h-.962v15.594h17.521v-15.594h-2.112v1.925h-1.738V101h1.738zm-11.557 15.41v1.738h-1.738v-1.738h1.738zm3.853 0v1.738h-1.739v-1.738h1.739zm3.852 0v1.738h-1.739v-1.738h1.739zm3.853 0v1.738h-1.739v-1.738h1.739zm-11.558-3.853v1.74h-1.738v-1.74h1.738zm3.853 0v1.74h-1.739v-1.74h1.739zm3.852 0v1.74h-1.739v-1.74h1.739zm3.853 0v1.74h-1.739v-1.74h1.739zm-7.705-3.852v1.739h-1.739v-1.739h1.739zm3.852 0v1.739h-1.739v-1.739h1.739zm3.853 0v1.739h-1.739v-1.739h1.739zM168.591 101v1.925h8.667v1.741h-8.667v1.925h-1.738V101h1.738z" fill="#2d3d49"/></g></g><defs ><path id="B" d="M160.764 135.178a.64.64 0 0 1 .233.493.63.63 0 0 1-.166.424l-.07.067-6.937 5.835 6.94 5.841c.128.11.208.253.23.408l.006.094c-.001.188-.089.361-.238.484a.78.78 0 0 1-.5.176.79.79 0 0 1-.414-.115l-.087-.063-7.526-6.332c-.15-.125-.237-.306-.236-.496.001-.159.062-.307.17-.422l.07-.065 7.522-6.328c.265-.236.732-.238 1.002 0z"/><path id="C" d="M168.143 135.105l.098.068 7.526 6.333a.65.65 0 0 1 .227.399l.006.092c0 .158-.06.307-.167.424l-.07.067-7.525 6.327a.76.76 0 0 1-.503.185.78.78 0 0 1-.5-.181c-.151-.129-.236-.306-.235-.497.001-.158.062-.306.168-.421l.069-.065 6.938-5.839-6.941-5.838c-.126-.108-.206-.25-.228-.406l-.006-.095c.003-.187.088-.359.237-.485.248-.204.629-.227.906-.068z"/></defs></svg>