<svg xmlns="http://www.w3.org/2000/svg" xmlns:xlink="http://www.w3.org/1999/xlink" width="400" height="400" xmlns:v="https://vecta.io/nano"><defs><rect id="A" width="400" height="400" rx="87"/></defs><g fill="none" fill-rule="evenodd"><mask id="B" fill="#fff"><use xlink:href="#A"/></mask><g mask="url(#B)" fill-rule="nonzero"><path fill="#0d3878" d="M0 0h400v400H0z"/><g transform="translate(66.667 53.333)"><path d="M49.354 32.868c2.53-1.533 15.843-8.756 18.517-9.939l8.396-3.565C108.04 6.459 140.051 0 172.299 0c36.009 0 60.739 12.508 74.191 37.525s20.177 61.31 20.177 108.88-6.726 83.865-20.177 108.881-38.182 37.525-74.191 37.525c-31.498 0-61.393-5.296-89.684-15.886-24.396-9.348-64.628-29.695-76.403-65.226C-3.057 183.731-10.32 69.021 49.354 32.868" fill="#fff"/><g fill="#0d3878"><path d="M60.597 91.997c9.026-12.53 23.958-18.794 44.795-18.794 13.008 0 26.015 3.099 39.022 9.297v20.181c-13.139-6.726-26.147-10.09-39.022-10.09s-21.734 4.484-26.578 13.453-7.267 22.422-7.267 40.36c0 17.807 2.456 31.228 7.367 40.262s13.604 13.553 26.08 13.553c14.998 0 28.802-3.759 41.411-11.277l-1.991 21.367c-13.007 6.2-26.147 9.299-39.42 9.299-20.44 0-35.206-6.3-44.297-18.894s-13.638-30.699-13.638-54.31c0-23.742 4.512-41.877 13.538-54.407m101.495 13.529l11.178-6.237 14.226-20.858h8.74v20.858h22.762v15.593h-22.762v72.012c0 3.639.879 6.271 2.641 7.894s4.539 2.436 8.332 2.436c4.471 0 8.603-.715 12.399-2.145v15.986c-5.421 2.209-11.652 3.313-18.699 3.313-9.484 0-16.462-1.884-20.934-5.654s-6.706-10.07-6.706-18.907v-74.936h-11.178v-9.356z"/></g></g></g></g></svg>