<svg xmlns="http://www.w3.org/2000/svg" width="220" height="36" fill="#0d3878" xmlns:v="https://vecta.io/nano"><path d="M11.087 0c2.472 0 4.944.592 7.417 1.778v3.86c-2.498-1.286-4.969-1.93-7.417-1.93s-4.131.858-5.051 2.573S4.655 10.57 4.655 14c0 3.406.467 5.973 1.4 7.701s2.586 2.593 4.957 2.593c2.851 0 5.474-.719 7.87-2.157l-.378 4.087c-2.472 1.186-4.969 1.779-7.492 1.779-3.885 0-6.691-1.205-8.42-3.614S0 18.517 0 14C0 9.459.858 5.991 2.573 3.595S7.126 0 11.087 0zm18.502 8.324c2.851 0 5.014.858 6.489 2.574s2.214 4.137 2.214 7.265-.738 5.55-2.214 7.266-3.639 2.573-6.489 2.573c-2.825 0-4.976-.864-6.452-2.593s-2.214-4.143-2.214-7.246.738-5.518 2.214-7.246 3.626-2.593 6.452-2.593h0zm.002 2.914h-.002c-1.539 0-2.636.587-3.292 1.76s-.984 2.895-.984 5.165.322 3.992.966 5.166 1.747 1.759 3.311 1.759 2.667-.587 3.311-1.759.966-2.895.966-5.166c0-2.296-.329-4.024-.984-5.184s-1.754-1.741-3.292-1.741zm33.22-2.914c1.589 0 2.882.467 3.879 1.401s1.495 2.283 1.495 4.049v13.85H63.87V14.606c0-1.892-.908-2.838-2.724-2.838-1.085 0-2.434.53-4.049 1.59v14.266h-4.314V14.606c0-1.892-.908-2.838-2.724-2.838-1.16 0-2.523.48-4.087 1.438v14.418h-4.276V8.703h4.087l.189 2.535h.076l1.854-1.853c1.311-.707 2.623-1.06 3.935-1.06 2.523 0 4.138 1.086 4.844 3.255h.076l2.119-2.194c1.312-.707 2.623-1.06 3.936-1.06l-.001-.002zm19.524 0c2.144 0 3.815.877 5.014 2.631s1.797 4.156 1.797 7.208c0 3.078-.693 5.487-2.081 7.228s-3.255 2.611-5.601 2.611c-1.261 0-2.472-.303-3.632-.909v-2.611c.756.403 1.602.605 2.535.605 2.901 0 4.352-2.308 4.352-6.925 0-2.371-.359-4.087-1.078-5.146s-1.785-1.589-3.198-1.589c-1.11 0-2.359.492-3.746 1.475v23.045H72.42V8.703h4.087l.19 2.27 2.308-1.779c1.009-.579 2.119-.871 3.33-.871v.001zm14.415.379V21.72c0 1.892.921 2.838 2.762 2.838 1.261 0 2.649-.48 4.163-1.438V8.703h4.276v18.921h-4.087l-.189-2.536h-.076l-1.854 1.854c-1.311.706-2.623 1.06-3.935 1.06-1.59 0-2.882-.467-3.879-1.401s-1.495-2.283-1.495-4.049V8.703h4.314zm20.394-4.048v4.048h4.238v3.027h-4.238v10.936c0 .707.164 1.218.492 1.533s.845.473 1.552.473a6.26 6.26 0 0 0 2.309-.416v3.103c-1.009.428-2.17.643-3.481.643-1.766 0-3.066-.366-3.897-1.098s-1.249-1.955-1.249-3.67V11.73h-2.081V9.914l2.081-1.211 2.649-4.048h1.627-.002zm16.572 3.669c.681 0 1.388.101 2.119.303l-1.4 3.822a6.7 6.7 0 0 0-1.703-.227c-1.513 0-2.863.618-4.048 1.854v13.547h-4.276V8.703h4.087l.189 3.292h.075l1.702-2.536c1.035-.756 2.119-1.135 3.255-1.135h0zm10.822 0c2.119 0 3.815.467 5.089 1.401s1.911 2.233 1.911 3.897v14.002h-4.125l-.189-2.498-2.347 1.892c-1.009.656-2.144.984-3.405.984-1.539 0-2.788-.448-3.746-1.344s-1.438-2.062-1.438-3.5c0-2.825 1.754-4.592 5.26-5.298l5.676-1.211v-1.892c0-2.321-1.211-3.481-3.633-3.481-1.892 0-3.784.391-5.676 1.173l-.265-.189 1.135-3.066c1.993-.579 3.91-.871 5.752-.871l.001.001zm2.687 10.407l-4.049 1.135c-.858.252-1.47.549-1.835.889s-.549.876-.549 1.608c0 .756.239 1.349.719 1.778s1.085.643 1.817.643c1.211 0 2.51-.618 3.897-1.854v-4.199zM160.012.378l.001 10.595 2.309-1.779c1.009-.579 2.119-.871 3.33-.871 2.144 0 3.815.877 5.013 2.631s1.797 4.156 1.797 7.208c0 3.103-.738 5.519-2.214 7.246s-3.525 2.593-6.148 2.593c-2.145 0-4.011-.555-5.601-1.665l-1.211 1.475h-1.552V.378h4.276zm3.748 11.05h-.001c-1.11 0-2.359.492-3.746 1.475v11.428c1.135.656 2.321.984 3.557.984 1.614 0 2.762-.612 3.443-1.835s1.022-2.996 1.022-5.317c0-2.371-.359-4.087-1.078-5.146s-1.784-1.589-3.197-1.589zm19.069-3.104c2.119 0 3.815.467 5.089 1.401s1.911 2.233 1.911 3.897v14.002h-4.125l-.189-2.498-2.346 1.892c-1.009.656-2.144.984-3.406.984-1.539 0-2.787-.448-3.746-1.344s-1.438-2.062-1.438-3.5c0-2.825 1.753-4.592 5.259-5.298l5.676-1.211v-1.892c0-2.321-1.211-3.481-3.633-3.481-1.892 0-3.784.391-5.675 1.173l-.265-.189 1.135-3.066c1.993-.579 3.91-.871 5.752-.871l.001.001zm2.686 10.407l-4.048 1.135c-.858.252-1.47.549-1.835.889s-.549.876-.549 1.608c0 .756.239 1.349.719 1.778s1.084.643 1.816.643c1.211 0 2.51-.618 3.897-1.854v-4.199zm13.054-10.028v18.655c0 2.018-.385 3.708-1.154 5.07s-2.252 2.535-4.447 3.519l-1.741-2.573c1.287-.807 2.119-1.595 2.498-2.365s.568-1.986.568-3.651V8.703h4.276zm12.032-.379c2.851 0 5.013.858 6.489 2.574s2.214 4.137 2.214 7.265-.738 5.55-2.214 7.266-3.639 2.573-6.489 2.573c-2.825 0-4.977-.864-6.452-2.593s-2.214-4.143-2.214-7.246.738-5.518 2.214-7.246 3.626-2.593 6.452-2.593zm.001 2.914h-.001c-1.539 0-2.636.587-3.292 1.76s-.984 2.895-.984 5.165.322 3.992.965 5.166 1.747 1.759 3.312 1.759 2.667-.587 3.311-1.759.965-2.895.965-5.166c0-2.296-.328-4.024-.984-5.184s-1.754-1.741-3.292-1.741zm-14.228-9.876c.732 0 1.331.221 1.797.662s.7.99.7 1.646-.234 1.205-.7 1.646-1.065.662-1.797.662c-.756 0-1.362-.221-1.816-.662s-.681-.991-.681-1.646a2.2 2.2 0 0 1 .681-1.646c.454-.441 1.06-.662 1.816-.662z"/></svg>